# xmcd
#
# Track frame offsets: 
#        150
#        17755
#        33926
#        48842
#        85953
#        98968
#        119516
#        145534
#        159541
#        174462
#        196509
#        217923
#        232682
#        259894
#
# Disc length: 3650 seconds
#
# Revision: 0
# Processed by: cddbd v1.5.2PL0 Copyright (c) Steve Scherf et al.
# Submitted via: ExactAudioCopy v0.99pb4
#
DISCID=a90e400e
DTITLE=Smokin Joe Kubek and Bnois King - Blood Brothers
DYEAR=2008
DGENRE=Blues
TTITLE0=1. My Dog's Still Walkin'
TTITLE1=2. Don't Lose My Number
TTITLE2=3. Flame Thrower
TTITLE3=4. Stop Drinking
TTITLE4=5. Must Be Karma
TTITLE5=6. Freezer Burn
TTITLE6=7. Coleman Avenue
TTITLE7=8. Midlife Crisis, Midnight Flight
TTITLE8=9. Bumpy Ride
TTITLE9=10. That Ring Don't Mean A Thing
TTITLE10=11. Cold Folks Boogie
TTITLE11=12. Out On A Limb
TTITLE12=13. The Pleasure Was All Mine
TTITLE13=14. Troubled Dreams
EXTD=
EXTT0=
EXTT1=
EXTT2=
EXTT3=
EXTT4=
EXTT5=
EXTT6=
EXTT7=
EXTT8=
EXTT9=
EXTT10=
EXTT11=
EXTT12=
EXTT13=
PLAYORDER=
